
<svg xmlns="http://www.w3.org/2000/svg" width="32" height="32" viewBox="0 0 32 32" fill="none">
  <circle cx="16" cy="16" r="16" fill="#FF6B6B"/>
  <path d="M23.7 19.92c.42-3.76-2.16-6.12-3.28-6.8-.1-1.97-.88-3.17-.88-3.17-.8 0-1.71.92-2.21 1.6-.72-.25-1.87-.46-3.33-.46-1.26 0-2.3.16-3.02.37-.5-.67-1.4-1.5-2.2-1.5 0 0-.78 1.2-.88 3.16-1.12.69-3.7 3.04-3.28 6.8.33 2.93 2.96 3.96 2.96 3.96-.17-2.54.04-2.33.04-2.33 2.66 3.13 7.21 2.5 9.38 1.17 2.17 1.33 6.72 1.96 9.38-1.17 0 0 .21-.21.04 2.33 0 0 2.63-1.03 2.96-3.96zM13 18.5a1.5 1.5 0 1 1 0-3 1.5 1.5 0 0 1 0 3zm6 0a1.5 1.5 0 1 1 0-3 1.5 1.5 0 0 1 0 3z" fill="white"/>
</svg>
